<svg width="146" height="44" viewBox="0 0 146 44" fill="none" xmlns="http://www.w3.org/2000/svg">
<path fill-rule="evenodd" clip-rule="evenodd" d="M139.901 44H6.04201C3.08984 44 0.685547 41.5202 0.685547 38.5V5.5C0.685547 2.46883 3.08984 0 6.04201 0H139.901C142.85 0 145.257 2.46883 145.257 5.5V38.5C145.257 41.5202 142.85 44 139.901 44Z" fill="url(#paint0_linear_1761_52827)"/>
<path d="M33.8907 21.0665C33.9029 20.1152 34.1556 19.1824 34.6252 18.355C35.0948 17.5276 35.7661 16.8324 36.5766 16.3342C36.0617 15.5988 35.3825 14.9937 34.5928 14.5668C33.8032 14.1399 32.9248 13.903 32.0276 13.8749C30.1137 13.674 28.2582 15.0202 27.2829 15.0202C26.2888 15.0202 24.7871 13.8949 23.1701 13.9281C22.1242 13.9619 21.1049 14.2661 20.2115 14.811C19.318 15.3558 18.581 16.1228 18.0721 17.0372C15.8679 20.8536 17.512 26.4624 19.6236 29.5472C20.68 31.0578 21.9147 32.7452 23.5302 32.6853C25.1111 32.6198 25.7016 31.6772 27.6098 31.6772C29.5004 31.6772 30.0544 32.6853 31.7027 32.6473C33.3991 32.6197 34.4679 31.13 35.4872 29.6051C36.2463 28.5288 36.8304 27.3392 37.2179 26.0804C36.2323 25.6636 35.3913 24.9659 34.7996 24.0742C34.2079 23.1826 33.8918 22.1365 33.8907 21.0665Z" fill="white"/>
<path d="M30.7774 11.8456C31.7024 10.7353 32.158 9.3081 32.0477 7.86719C30.6346 8.01561 29.3293 8.69098 28.3918 9.75873C27.9335 10.2804 27.5825 10.8872 27.3588 11.5446C27.1351 12.2019 27.0432 12.897 27.0883 13.5899C27.7951 13.5972 28.4944 13.444 29.1334 13.1418C29.7724 12.8397 30.3345 12.3965 30.7774 11.8456Z" fill="white"/>
<path d="M53.6181 28.2747H48.3776L47.1191 31.8874H44.8994L49.8631 18.5215H52.1693L57.133 31.8874H54.8755L53.6181 28.2747ZM48.9203 26.6077H53.0743L51.0265 20.7446H50.9692L48.9203 26.6077Z" fill="white"/>
<path d="M67.8502 27.0157C67.8502 30.044 66.183 31.9896 63.6671 31.9896C63.0298 32.022 62.396 31.8793 61.8382 31.5777C61.2804 31.2762 60.8213 30.8281 60.5133 30.2847H60.4657V35.1113H58.4082V22.1428H60.3998V23.7636H60.4376C60.7597 23.2228 61.2267 22.777 61.7887 22.4736C62.3507 22.1703 62.9868 22.0207 63.6293 22.0409C66.1733 22.0409 67.8502 23.9959 67.8502 27.0157ZM65.7354 27.0157C65.7354 25.0428 64.6867 23.7458 63.0865 23.7458C61.5145 23.7458 60.4571 25.0702 60.4571 27.0157C60.4571 28.9792 61.5145 30.2941 63.0865 30.2941C64.6867 30.2941 65.7354 29.0065 65.7354 27.0157Z" fill="white"/>
<path d="M78.8854 27.0157C78.8854 30.044 77.2182 31.9896 74.7023 31.9896C74.0649 32.022 73.4311 31.8793 72.8733 31.5777C72.3156 31.2762 71.8564 30.8281 71.5485 30.2847H71.5009V35.1113H69.4434V22.1428H71.4349V23.7636H71.4727C71.7949 23.2228 72.2618 22.777 72.8238 22.4736C73.3858 22.1703 74.0219 22.0207 74.6644 22.0409C77.2084 22.0409 78.8854 23.9959 78.8854 27.0157ZM76.7706 27.0157C76.7706 25.0428 75.7218 23.7457 74.1217 23.7457C72.5496 23.7457 71.4922 25.0701 71.4922 27.0157C71.4922 28.9792 72.5496 30.2941 74.1217 30.2941C75.7218 30.2941 76.7706 29.0065 76.7706 27.0157H76.7706Z" fill="white"/>
<path d="M86.1736 28.1635C86.326 29.489 87.6505 30.3592 89.4604 30.3592C91.1946 30.3592 92.4423 29.4889 92.4423 28.2938C92.4423 27.2564 91.6898 26.6352 89.908 26.2095L88.1262 25.7922C85.6016 25.1993 84.4296 24.0515 84.4296 22.189C84.4296 19.8828 86.4968 18.2988 89.4322 18.2988C92.3374 18.2988 94.3289 19.8828 94.396 22.189H92.319C92.1947 20.8551 91.0605 20.05 89.403 20.05C87.7456 20.05 86.6114 20.8646 86.6114 22.0502C86.6114 22.9952 87.3358 23.5512 89.1079 23.9769L90.6226 24.3384C93.4434 24.987 94.6154 26.0886 94.6154 28.0436C94.6154 30.5442 92.5666 32.1103 89.3079 32.1103C86.2589 32.1103 84.2004 30.581 84.0674 28.1634L86.1736 28.1635Z" fill="white"/>
<path d="M99.0588 19.8389V22.145H100.965V23.729H99.0588V29.1012C99.0588 29.9358 99.4405 30.3247 100.278 30.3247C100.505 30.3209 100.731 30.3054 100.955 30.2784V31.853C100.579 31.9214 100.196 31.9524 99.8124 31.9455C97.783 31.9455 96.9916 31.2044 96.9916 29.3146V23.729H95.5342V22.145H96.9916V19.8389H99.0588Z" fill="white"/>
<path d="M102.07 27.0162C102.07 23.9501 103.928 22.0234 106.824 22.0234C109.73 22.0234 111.579 23.9501 111.579 27.0162C111.579 30.0907 109.74 32.0089 106.824 32.0089C103.909 32.0089 102.07 30.0907 102.07 27.0162ZM109.483 27.0162C109.483 24.9129 108.491 23.6716 106.824 23.6716C105.157 23.6716 104.167 24.9224 104.167 27.0162C104.167 29.1279 105.157 30.3598 106.824 30.3598C108.491 30.3598 109.483 29.1279 109.483 27.0162H109.483Z" fill="white"/>
<path d="M113.276 22.1427H115.239V23.8014H115.286C115.419 23.2833 115.731 22.8255 116.17 22.5049C116.609 22.1843 117.149 22.0204 117.697 22.0408C117.934 22.04 118.171 22.065 118.402 22.1154V23.9864C118.103 23.8974 117.791 23.8566 117.478 23.8655C117.179 23.8537 116.881 23.9049 116.604 24.0157C116.328 24.1264 116.079 24.294 115.875 24.507C115.672 24.72 115.518 24.9733 115.424 25.2496C115.331 25.5259 115.3 25.8185 115.334 26.1075V31.8875H113.276L113.276 22.1427Z" fill="white"/>
<path d="M127.887 29.0269C127.61 30.7959 125.838 32.0099 123.571 32.0099C120.655 32.0099 118.845 30.1106 118.845 27.0634C118.845 24.0068 120.664 22.0244 123.484 22.0244C126.257 22.0244 128.001 23.8765 128.001 26.8311V27.5164H120.922V27.6373C120.889 27.9959 120.935 28.3572 121.057 28.6972C121.179 29.0371 121.374 29.348 121.629 29.609C121.884 29.8701 122.193 30.0754 122.536 30.2114C122.879 30.3473 123.248 30.4108 123.618 30.3975C124.104 30.4418 124.592 30.3323 125.009 30.0854C125.426 29.8384 125.75 29.4672 125.933 29.0269L127.887 29.0269ZM120.931 26.1185H125.943C125.961 25.796 125.911 25.4733 125.795 25.1706C125.679 24.868 125.5 24.5918 125.269 24.3596C125.038 24.1274 124.761 23.944 124.453 23.8211C124.146 23.6982 123.816 23.6383 123.484 23.6452C123.149 23.6433 122.817 23.7059 122.507 23.8294C122.197 23.9529 121.915 24.1348 121.678 24.3648C121.44 24.5947 121.252 24.8681 121.124 25.1691C120.996 25.4701 120.931 25.7927 120.931 26.1185V26.1185Z" fill="white"/>
<path d="M48.7778 7.87881C49.2218 7.84694 49.6674 7.91403 50.0824 8.07523C50.4974 8.23643 50.8715 8.48772 51.1776 8.81098C51.4837 9.13424 51.7143 9.52142 51.8526 9.94457C51.991 10.3677 52.0337 10.8163 51.9777 11.258C51.9777 13.4306 50.8035 14.6795 48.7778 14.6795H46.3213V7.87881H48.7778ZM47.3776 13.7178H48.6598C48.9771 13.7367 49.2946 13.6847 49.5893 13.5655C49.884 13.4462 50.1484 13.2628 50.3632 13.0285C50.578 12.7942 50.7379 12.515 50.8312 12.2111C50.9245 11.9072 50.9489 11.5863 50.9025 11.2719C50.9455 10.9586 50.9187 10.6397 50.8239 10.3381C50.7292 10.0364 50.5689 9.75947 50.3546 9.52704C50.1402 9.29461 49.8771 9.11247 49.5841 8.99367C49.2911 8.87487 48.9755 8.82234 48.6598 8.83986H47.3776V13.7178Z" fill="white"/>
<path d="M53.1736 12.1102C53.1413 11.7729 53.1799 11.4326 53.2868 11.1111C53.3938 10.7896 53.5667 10.494 53.7946 10.2433C54.0225 9.99258 54.3003 9.79225 54.6101 9.65516C54.92 9.51808 55.255 9.44727 55.5939 9.44727C55.9327 9.44727 56.2677 9.51808 56.5776 9.65516C56.8874 9.79225 57.1652 9.99258 57.3931 10.2433C57.621 10.494 57.7939 10.7896 57.9009 11.1111C58.0078 11.4326 58.0464 11.7729 58.0142 12.1102C58.047 12.4478 58.0089 12.7885 57.9022 13.1106C57.7956 13.4326 57.6227 13.7287 57.3948 13.9799C57.1668 14.2311 56.8888 14.4319 56.5787 14.5693C56.2685 14.7066 55.9331 14.7776 55.5939 14.7776C55.2546 14.7776 54.9192 14.7066 54.609 14.5693C54.2989 14.4319 54.0209 14.2311 53.793 13.9799C53.565 13.7287 53.3921 13.4326 53.2855 13.1106C53.1788 12.7885 53.1407 12.4478 53.1736 12.1102ZM56.9723 12.1102C56.9723 10.9977 56.4726 10.3471 55.5955 10.3471C54.7151 10.3471 54.2198 10.9977 54.2198 12.1102C54.2198 13.2316 54.7152 13.8771 55.5955 13.8771C56.4726 13.8771 56.9724 13.2271 56.9724 12.1102H56.9723Z" fill="white"/>
<path d="M64.4434 14.6801H63.3927L62.332 10.9002H62.2519L61.1956 14.6801H60.1549L58.7402 9.54785H59.7676L60.6869 13.464H60.7626L61.8178 9.54785H62.7895L63.8446 13.464H63.9248L64.8397 9.54785H65.8526L64.4434 14.6801Z" fill="white"/>
<path d="M67.0449 9.54553H68.0199V10.3608H68.0956C68.224 10.068 68.4406 9.82253 68.7151 9.65862C68.9897 9.49472 69.3085 9.42055 69.6272 9.44646C69.8769 9.42768 70.1276 9.46534 70.3608 9.55663C70.594 9.64791 70.8037 9.7905 70.9743 9.97382C71.1449 10.1571 71.2721 10.3765 71.3464 10.6156C71.4207 10.8548 71.4402 11.1076 71.4036 11.3553V14.6777H70.3907V11.6097C70.3907 10.7849 70.0323 10.3747 69.2832 10.3747C69.1137 10.3668 68.9444 10.3957 68.7871 10.4593C68.6297 10.523 68.488 10.6199 68.3716 10.7434C68.2552 10.8669 68.1669 11.0142 68.1127 11.175C68.0586 11.3359 68.0398 11.5065 68.0578 11.6753V14.6778H67.0449L67.0449 9.54553Z" fill="white"/>
<path d="M73.0156 7.54297H74.0285V14.6787H73.0156V7.54297Z" fill="white"/>
<path d="M75.4382 12.1093C75.4059 11.772 75.4445 11.4317 75.5515 11.1102C75.6585 10.7887 75.8315 10.4931 76.0594 10.2423C76.2873 9.99161 76.5651 9.79128 76.875 9.65419C77.1848 9.5171 77.5199 9.44629 77.8588 9.44629C78.1976 9.44629 78.5327 9.5171 78.8425 9.65419C79.1524 9.79128 79.4302 9.99161 79.6581 10.2423C79.886 10.4931 80.059 10.7887 80.166 11.1102C80.273 11.4317 80.3116 11.772 80.2793 12.1093C80.3122 12.4469 80.274 12.7877 80.1673 13.1097C80.0606 13.4317 79.8877 13.7278 79.6597 13.979C79.4318 14.2302 79.1538 14.431 78.8436 14.5683C78.5335 14.7057 78.198 14.7767 77.8588 14.7767C77.5195 14.7767 77.1841 14.7057 76.8739 14.5683C76.5637 14.431 76.2857 14.2302 76.0578 13.979C75.8298 13.7278 75.6569 13.4317 75.5502 13.1097C75.4435 12.7877 75.4053 12.4469 75.4382 12.1093ZM79.237 12.1093C79.237 10.9968 78.7372 10.3462 77.8601 10.3462C76.9797 10.3462 76.4845 10.9968 76.4845 12.1093C76.4845 13.2307 76.9798 13.8762 77.8601 13.8762C78.7372 13.8762 79.237 13.2262 79.237 12.1093H79.237Z" fill="white"/>
<path d="M81.3447 13.2271C81.3447 12.3033 82.0326 11.7707 83.2536 11.695L84.6438 11.6149V11.1719C84.6438 10.6299 84.2854 10.3238 83.5931 10.3238C83.0276 10.3238 82.6359 10.5314 82.5234 10.8942H81.5428C81.6464 10.0127 82.4756 9.44727 83.6398 9.44727C84.9265 9.44727 85.6522 10.0878 85.6522 11.1719V14.6785H84.6772V13.9573H84.597C84.4344 14.216 84.206 14.4269 83.9351 14.5685C83.6643 14.7101 83.3607 14.7772 83.0555 14.7631C82.84 14.7855 82.6223 14.7625 82.4162 14.6956C82.2102 14.6287 82.0205 14.5194 81.8593 14.3747C81.6981 14.23 81.5691 14.0531 81.4804 13.8554C81.3918 13.6578 81.3456 13.4438 81.3447 13.2271ZM84.6438 12.7886V12.3595L83.3905 12.4397C82.6837 12.487 82.3632 12.7274 82.3632 13.1798C82.3632 13.6417 82.7638 13.9105 83.3148 13.9105C83.4763 13.9269 83.6394 13.9106 83.7944 13.8626C83.9494 13.8146 84.0932 13.736 84.2172 13.6313C84.3411 13.5266 84.4428 13.3981 84.5161 13.2533C84.5894 13.1085 84.6328 12.9505 84.6438 12.7886Z" fill="white"/>
<path d="M86.9873 12.1103C86.9873 10.4886 87.821 9.46131 89.1177 9.46131C89.4384 9.44653 89.7567 9.52335 90.0354 9.6828C90.3141 9.84224 90.5417 10.0777 90.6915 10.3617H90.7672V7.54297H91.7801V14.6787H90.8095V13.8678H90.7294C90.568 14.1499 90.3325 14.3824 90.0484 14.5403C89.7643 14.6981 89.4424 14.7752 89.1177 14.7632C87.8121 14.7633 86.9873 13.7359 86.9873 12.1103ZM88.0336 12.1103C88.0336 13.1989 88.5467 13.8539 89.4049 13.8539C90.2586 13.8539 90.7862 13.1894 90.7862 12.1148C90.7862 11.0452 90.253 10.3712 89.4049 10.3712C88.5522 10.3712 88.0336 11.0307 88.0336 12.1103H88.0336Z" fill="white"/>
<path d="M95.9704 12.1102C95.9382 11.7729 95.9767 11.4326 96.0837 11.1111C96.1907 10.7896 96.3636 10.494 96.5915 10.2433C96.8194 9.99258 97.0972 9.79225 97.407 9.65516C97.7168 9.51808 98.0519 9.44727 98.3907 9.44727C98.7296 9.44727 99.0646 9.51808 99.3745 9.65516C99.6843 9.79225 99.9621 9.99258 100.19 10.2433C100.418 10.494 100.591 10.7896 100.698 11.1111C100.805 11.4326 100.843 11.7729 100.811 12.1102C100.844 12.4478 100.806 12.7885 100.699 13.1106C100.592 13.4326 100.42 13.7287 100.192 13.9799C99.9637 14.2311 99.6857 14.4319 99.3756 14.5693C99.0654 14.7066 98.73 14.7776 98.3907 14.7776C98.0515 14.7776 97.7161 14.7066 97.4059 14.5693C97.0957 14.4319 96.8178 14.2311 96.5898 13.9799C96.3619 13.7287 96.189 13.4326 96.0823 13.1106C95.9757 12.7885 95.9376 12.4478 95.9704 12.1102ZM99.7692 12.1102C99.7692 10.9977 99.2695 10.3471 98.3924 10.3471C97.512 10.3471 97.0167 10.9977 97.0167 12.1102C97.0167 13.2316 97.512 13.8771 98.3924 13.8771C99.2695 13.8771 99.7692 13.2271 99.7692 12.1102Z" fill="white"/>
<path d="M102.166 9.54553H103.141V10.3608H103.217C103.345 10.068 103.562 9.82253 103.836 9.65862C104.111 9.49472 104.43 9.42055 104.748 9.44646C104.998 9.42768 105.249 9.46534 105.482 9.55663C105.715 9.64791 105.925 9.7905 106.095 9.97382C106.266 10.1571 106.393 10.3765 106.467 10.6156C106.542 10.8548 106.561 11.1076 106.525 11.3553V14.6777H105.512V11.6097C105.512 10.7849 105.153 10.3747 104.404 10.3747C104.235 10.3668 104.066 10.3957 103.908 10.4593C103.751 10.523 103.609 10.6199 103.493 10.7434C103.376 10.8669 103.288 11.0142 103.234 11.175C103.18 11.3359 103.161 11.5065 103.179 11.6753V14.6778H102.166V9.54553Z" fill="white"/>
<path d="M112.25 8.26855V9.56969H113.362V10.4228H112.25V13.0619C112.25 13.5995 112.471 13.8349 112.975 13.8349C113.104 13.8344 113.233 13.8266 113.362 13.8115V14.6552C113.18 14.6877 112.995 14.705 112.811 14.7069C111.684 14.7069 111.236 14.3107 111.236 13.3212V10.4228H110.421V9.56965H111.236V8.26855H112.25Z" fill="white"/>
<path d="M114.747 7.54297H115.751V10.3712H115.831C115.966 10.0756 116.188 9.82878 116.468 9.66426C116.748 9.49974 117.072 9.42556 117.396 9.45184C117.644 9.43832 117.893 9.47979 118.123 9.5733C118.354 9.66681 118.561 9.81004 118.73 9.99279C118.899 10.1755 119.025 10.3933 119.1 10.6305C119.175 10.8677 119.197 11.1186 119.164 11.3651V14.6787H118.15V11.615C118.15 10.7953 117.768 10.3801 117.052 10.3801C116.878 10.3658 116.703 10.3897 116.539 10.4502C116.375 10.5107 116.227 10.6062 116.104 10.7302C115.98 10.8541 115.886 11.0034 115.827 11.1677C115.767 11.332 115.745 11.5073 115.76 11.6812V14.6786H114.747L114.747 7.54297Z" fill="white"/>
<path d="M125.07 13.2929C124.932 13.762 124.634 14.1677 124.227 14.4391C123.821 14.7105 123.332 14.8304 122.846 14.7777C122.508 14.7866 122.172 14.7219 121.861 14.5879C121.55 14.4539 121.273 14.254 121.047 14.002C120.822 13.7499 120.654 13.4518 120.555 13.1283C120.456 12.8048 120.429 12.4637 120.475 12.1287C120.43 11.7926 120.458 11.4507 120.556 11.1263C120.655 10.8018 120.822 10.5023 121.046 10.2481C121.271 9.99382 121.547 9.79075 121.857 9.6526C122.166 9.51446 122.502 9.44446 122.841 9.44735C124.269 9.44735 125.131 10.423 125.131 12.0346V12.388H121.507V12.4448C121.491 12.6331 121.515 12.8227 121.576 13.0013C121.638 13.18 121.736 13.3438 121.865 13.4822C121.994 13.6207 122.15 13.7307 122.324 13.8052C122.497 13.8797 122.685 13.9172 122.874 13.9151C123.116 13.9441 123.361 13.9005 123.579 13.7897C123.796 13.6789 123.976 13.506 124.095 13.2929L125.07 13.2929ZM121.507 11.6389H124.099C124.112 11.4667 124.088 11.2937 124.03 11.131C123.972 10.9683 123.881 10.8196 123.762 10.6944C123.643 10.5692 123.499 10.4703 123.339 10.404C123.18 10.3377 123.008 10.3054 122.836 10.3094C122.661 10.3072 122.487 10.3401 122.324 10.4061C122.162 10.4722 122.015 10.57 121.891 10.6939C121.767 10.8178 121.669 10.9653 121.603 11.1276C121.537 11.2899 121.505 11.4637 121.507 11.6389H121.507Z" fill="white"/>
<defs>
<linearGradient id="paint0_linear_1761_52827" x1="72.9713" y1="0" x2="72.9713" y2="44" gradientUnits="userSpaceOnUse">
<stop stop-color="#363643"/>
<stop offset="1" stop-color="#110E17"/>
</linearGradient>
</defs>
</svg>
