<svg width="145" height="44" viewBox="0 0 145 44" fill="none" xmlns="http://www.w3.org/2000/svg">
<path fill-rule="evenodd" clip-rule="evenodd" d="M139.215 44H5.35647C2.40429 44 0 41.5202 0 38.5V5.5C0 2.46883 2.40429 0 5.35647 0H139.215C142.164 0 144.571 2.46883 144.571 5.5V38.5C144.571 41.5202 142.164 44 139.215 44Z" fill="url(#paint0_linear_1761_52813)"/>
<path d="M76.2459 13.7504C75.377 13.7504 74.6445 13.4464 74.0652 12.8479C73.4908 12.2662 73.17 11.4642 73.1844 10.6455C73.1844 9.77171 73.4812 9.03199 74.0652 8.44548C74.6421 7.847 75.3746 7.54297 76.2435 7.54297C77.1029 7.54297 77.8353 7.847 78.4242 8.44548C79.0083 9.05114 79.3051 9.79086 79.3051 10.6455C79.2955 11.5217 78.9987 12.2614 78.4242 12.8455C77.8473 13.4488 77.1148 13.7504 76.2459 13.7504ZM50.3915 13.7504C49.5417 13.7504 48.8045 13.4512 48.2013 12.8599C47.6028 12.271 47.2988 11.5265 47.2988 10.6479C47.2988 9.76932 47.6028 9.02481 48.2013 8.4359C48.7925 7.8446 49.5298 7.54536 50.3915 7.54536C50.8128 7.54536 51.2221 7.62915 51.6147 7.79912C52.0001 7.9643 52.3136 8.18933 52.5458 8.46463L52.6033 8.53405L51.9546 9.17084L51.8876 9.09184C51.5213 8.65614 51.0306 8.44308 50.3819 8.44308C49.8026 8.44308 49.2976 8.64896 48.8811 9.05593C48.4622 9.46529 48.2491 10.0015 48.2491 10.6503C48.2491 11.299 48.4622 11.8353 48.8811 12.2446C49.2976 12.6516 49.8026 12.8575 50.3819 12.8575C50.9995 12.8575 51.5189 12.6516 51.9235 12.2446C52.1628 12.0052 52.3112 11.6701 52.3639 11.2464H50.2838V10.351H53.2568L53.2687 10.4324C53.2903 10.5832 53.3118 10.7389 53.3118 10.8825C53.3118 11.7084 53.0629 12.3763 52.5698 12.8694C52.0096 13.4536 51.2772 13.7504 50.3915 13.7504ZM84.7675 13.6235H83.8507L81.0429 9.13014L81.0668 9.93928V13.6211H80.15V7.67224H81.1961L81.2248 7.71773L83.8651 11.9502L83.8411 11.1434V7.67224H84.7675V13.6235ZM69.3568 13.6235H68.4281V8.56757H66.8171V7.67224H70.9654V8.56757H69.3544V13.6235H69.3568ZM66.0607 13.6235H65.1343V7.67224H66.0607V13.6235ZM60.8544 13.6235H59.928V8.56757H58.3171V7.67224H62.4653V8.56757H60.8544V13.6235ZM57.7306 13.614H54.1783V7.67224H57.7306V8.56757H55.1071V10.2002H57.4745V11.086H55.1071V12.7186H57.7306V13.614ZM74.7451 12.2327C75.1592 12.6468 75.6619 12.8551 76.2459 12.8551C76.8467 12.8551 77.3374 12.6516 77.7468 12.2327C78.1537 11.8257 78.3596 11.2919 78.3596 10.6479C78.3596 10.0039 78.1537 9.46768 77.7492 9.06311C77.335 8.64896 76.83 8.44069 76.2483 8.44069C75.6475 8.44069 75.1568 8.64417 74.7498 9.06311C74.3429 9.47008 74.1371 10.0039 74.1371 10.6479C74.1371 11.2919 74.3405 11.8281 74.7451 12.2327Z" fill="white"/>
<path fill-rule="evenodd" clip-rule="evenodd" d="M73.2801 23.3124C71.0181 23.3124 69.1845 25.0289 69.1845 27.3964C69.1845 29.7425 71.0301 31.4805 73.2801 31.4805C75.5422 31.4805 77.3758 29.7521 77.3758 27.3964C77.3758 25.0289 75.5422 23.3124 73.2801 23.3124ZM73.2801 29.8622C72.0426 29.8622 70.9774 28.8376 70.9774 27.3869C70.9774 25.9146 72.045 24.9115 73.2801 24.9115C74.5177 24.9115 75.5829 25.9146 75.5829 27.3869C75.5853 28.8472 74.5177 29.8622 73.2801 29.8622ZM64.3444 23.3124C62.0824 23.3124 60.2488 25.0289 60.2488 27.3964C60.2488 29.7425 62.0943 31.4805 64.3444 31.4805C66.6065 31.4805 68.4401 29.7521 68.4401 27.3964C68.4401 25.0289 66.6041 23.3124 64.3444 23.3124ZM64.3444 29.8622C63.1069 29.8622 62.0417 28.8376 62.0417 27.3869C62.0417 25.9146 63.1093 24.9115 64.3444 24.9115C65.582 24.9115 66.6472 25.9146 66.6472 27.3869C66.6472 28.8472 65.582 29.8622 64.3444 29.8622ZM53.7116 24.5596V26.2881H57.8599C57.733 27.2576 57.4122 27.9734 56.9215 28.4641C56.3135 29.0722 55.3752 29.7329 53.7211 29.7329C51.1718 29.7329 49.1779 27.6741 49.1779 25.1246C49.1779 22.5751 51.1718 20.5163 53.7211 20.5163C55.0975 20.5163 56.1005 21.0597 56.8449 21.754L58.0705 20.5283C57.0364 19.5372 55.6601 18.7783 53.7307 18.7783C50.2335 18.7783 47.2988 21.6271 47.2988 25.115C47.2988 28.6126 50.2311 31.4517 53.7307 31.4517C55.6194 31.4517 57.0364 30.8341 58.1567 29.6707C59.2985 28.5288 59.6599 26.9177 59.6599 25.6178C59.6599 25.2132 59.6288 24.8493 59.5642 24.5405H53.7092C53.7116 24.5381 53.7116 24.5596 53.7116 24.5596ZM97.2029 25.905C96.8606 24.9882 95.8265 23.3028 93.7057 23.3028C91.604 23.3028 89.8566 24.957 89.8566 27.3869C89.8566 29.6802 91.5848 31.4709 93.9091 31.4709C95.7762 31.4709 96.863 30.329 97.3106 29.6587L95.9246 28.7299C95.465 29.4121 94.8259 29.8598 93.9187 29.8598C93.0019 29.8598 92.3604 29.4432 91.9343 28.6221L97.3944 26.3599C97.3944 26.3623 97.2029 25.905 97.2029 25.905ZM91.6351 27.2696C91.592 25.692 92.8607 24.89 93.7679 24.89C94.4836 24.89 95.0796 25.2419 95.2831 25.7542L91.6351 27.2696ZM87.1996 31.2267H88.9924V19.2284H87.1996V31.2267ZM84.2553 24.2197H84.1907C83.7861 23.7385 83.0177 23.3028 82.0363 23.3028C79.9993 23.3028 78.1226 25.0959 78.1226 27.3988C78.1226 29.6922 79.9897 31.4637 82.0363 31.4637C83.0058 31.4637 83.7861 31.0256 84.1907 30.5349H84.2553V31.1214C84.2553 32.6798 83.4223 33.5201 82.0794 33.5201C80.9807 33.5201 80.2985 32.7301 80.0208 32.0694L78.4625 32.7205C78.9101 33.7978 80.1046 35.1312 82.077 35.1312C84.1787 35.1312 85.9596 33.8935 85.9596 30.8748V23.547H84.2649V24.2197C84.2673 24.2197 84.2553 24.2197 84.2553 24.2197ZM82.1967 29.8622C80.9592 29.8622 79.9251 28.828 79.9251 27.3988C79.9251 25.9577 80.9592 24.9139 82.1967 24.9139C83.4223 24.9139 84.3726 25.9697 84.3726 27.3988C84.3846 28.828 83.4247 29.8622 82.1967 29.8622ZM105.598 19.2284H101.31V31.2267H103.103V26.6831H105.6C107.584 26.6831 109.535 25.2443 109.535 22.9605C109.535 20.6767 107.592 19.2284 105.598 19.2284ZM105.65 25.0073H103.101V20.8898H105.65C106.993 20.8898 107.752 21.9981 107.752 22.9485C107.752 23.8893 106.984 25.0073 105.65 25.0073ZM116.721 23.2909C115.419 23.2909 114.076 23.8678 113.521 25.1246L115.11 25.7853C115.452 25.1246 116.08 24.8996 116.743 24.8996C117.671 24.8996 118.61 25.455 118.631 26.4461V26.5729C118.311 26.391 117.607 26.1133 116.764 26.1133C115.048 26.1133 113.308 27.0517 113.308 28.8112C113.308 30.4224 114.715 31.4565 116.283 31.4565C117.487 31.4565 118.15 30.9131 118.564 30.2835H118.629V31.2124H120.357V26.616C120.357 24.4759 118.768 23.2909 116.721 23.2909ZM116.496 29.8622C115.91 29.8622 115.089 29.5749 115.089 28.8376C115.089 27.9087 116.113 27.5568 116.987 27.5568C117.777 27.5568 118.15 27.7268 118.619 27.9614C118.49 29.0387 117.58 29.8526 116.496 29.8622ZM126.662 23.547L124.604 28.7514H124.539L122.406 23.547H120.477L123.677 30.8221L121.853 34.8655H123.72L128.644 23.547H126.662ZM110.524 31.2267H112.317V19.2284H110.524V31.2267Z" fill="white"/>
<path fill-rule="evenodd" clip-rule="evenodd" d="M31.5402 17.091L17.5154 9.12399C16.6944 8.65478 15.9571 8.71941 15.5215 9.18862L27.4876 21.1439L31.5402 17.091Z" fill="url(#paint1_linear_1761_52813)"/>
<path fill-rule="evenodd" clip-rule="evenodd" d="M15.523 9.17694C15.2453 9.47618 15.085 9.93342 15.085 10.5319V31.7588C15.085 32.3573 15.2453 32.8145 15.5326 33.1018L15.6068 33.1664L27.4987 21.2734V21.0077L15.5972 9.1123L15.523 9.17694Z" fill="url(#paint2_linear_1761_52813)"/>
<path fill-rule="evenodd" clip-rule="evenodd" d="M31.4556 25.2502L27.4893 21.2835V21.0058L31.4556 17.0391L31.5418 17.0917L36.2335 19.7586C37.5763 20.515 37.5763 21.7647 36.2335 22.5307L31.5418 25.1975L31.4556 25.2502Z" fill="url(#paint3_linear_1761_52813)"/>
<path fill-rule="evenodd" clip-rule="evenodd" d="M31.5402 25.1984L27.4876 21.1455L15.5215 33.1127C15.9595 33.5819 16.6944 33.6346 17.5154 33.1774L31.5402 25.1984Z" fill="url(#paint4_linear_1761_52813)"/>
<path opacity="0.25" fill-rule="evenodd" clip-rule="evenodd" d="M17.517 9.26409L36.2334 19.8979C36.8414 20.2402 37.1837 20.6879 37.2363 21.1451C37.2363 20.6448 36.906 20.1421 36.2334 19.759L17.517 9.12524C16.1741 8.35679 15.085 8.99836 15.085 10.5329V10.6717C15.085 9.13481 16.1741 8.50521 17.517 9.26409Z" fill="white"/>
<defs>
<linearGradient id="paint0_linear_1761_52813" x1="72.2857" y1="0" x2="72.2857" y2="44" gradientUnits="userSpaceOnUse">
<stop stop-color="#363643"/>
<stop offset="1" stop-color="#110E17"/>
</linearGradient>
<linearGradient id="paint1_linear_1761_52813" x1="12.5083" y1="2.11625" x2="19.3317" y2="13.6118" gradientUnits="userSpaceOnUse">
<stop stop-color="#32A071"/>
<stop offset="0.0685" stop-color="#2DA771"/>
<stop offset="0.4762" stop-color="#15CF74"/>
<stop offset="0.8009" stop-color="#06E775"/>
<stop offset="1" stop-color="#00F076"/>
</linearGradient>
<linearGradient id="paint2_linear_1761_52813" x1="26.432" y1="10.3029" x2="7.38298" y2="15.3781" gradientUnits="userSpaceOnUse">
<stop stop-color="#00A0FF"/>
<stop offset="0.00657" stop-color="#00A1FF"/>
<stop offset="0.2601" stop-color="#00BEFF"/>
<stop offset="0.5122" stop-color="#00D2FF"/>
<stop offset="0.7604" stop-color="#00DFFF"/>
<stop offset="1" stop-color="#00E3FF"/>
</linearGradient>
<linearGradient id="paint3_linear_1761_52813" x1="37.9847" y1="21.1447" x2="14.7587" y2="21.1447" gradientUnits="userSpaceOnUse">
<stop stop-color="#FFE000"/>
<stop offset="0.4087" stop-color="#FFBD00"/>
<stop offset="0.7754" stop-color="#FFA500"/>
<stop offset="1" stop-color="#FF9C00"/>
</linearGradient>
<linearGradient id="paint4_linear_1761_52813" x1="29.3366" y1="23.3509" x2="14.0422" y2="49.0902" gradientUnits="userSpaceOnUse">
<stop stop-color="#FF3A44"/>
<stop offset="1" stop-color="#C31162"/>
</linearGradient>
</defs>
</svg>
